<?xml version="1.0" encoding="utf-8"?>
<!-- Generator: Adobe Illustrator 19.2.1, SVG Export Plug-In . SVG Version: 6.00 Build 0)  -->
<svg version="1.1" id="layer" xmlns="http://www.w3.org/2000/svg" xmlns:xlink="http://www.w3.org/1999/xlink" x="0px" y="0px"
	 viewBox="0 0 652 652" style="enable-background:new 0 0 652 652;" xml:space="preserve">
<style type="text/css">
	.st0{fill:#03878C;}
	.st1{fill:#303584;}
	.st2{fill:#114B86;}
	.st3{fill:#00748D;}
</style>
<path class="st0" d="M229.3,360.3h6.4v39h-6.4V360.3z M229.2,345.7h6.7v6.2h-6.7V345.7z M253.8,399.3v-28.1c4.1-3.8,8-6.3,12.6-6.3
	c5,0,7.2,2.4,7.2,7.6v26.7h6.4v-28.1c0-7.4-4.1-11.7-11.5-11.7c-6.4,0-11.2,3.3-14.6,6.6v-5.8h-6.4v39H253.8z M293.6,389.8
	c0,6.8,2.7,10,10.9,10c2,0,4.4-0.2,5.5-0.4v-5.2c-1,0.3-2.6,0.5-4,0.5c-4.7,0-6.1-2.1-6.1-6.2v-22.9h10.1v-5.2h-10.1v-13.9h-6.4
	v13.9h-6.8v5.2h6.8V389.8 M343.7,376.4c-0.5-6.9-3.8-11.7-10.3-11.7c-5.2,0-10.2,3.6-11.1,11.7H343.7z M315.8,379.8
	c0-14.2,9.5-20.3,17.7-20.3c9.2,0,16.3,6.5,16.3,20.6v1.3h-27.6c0.2,8.8,5.3,13.5,11.7,13.5c5.6,0,8.8-2.3,11.7-6.4l3.7,3.2
	c-3.6,5.2-8.6,8.3-15.9,8.3C324.3,400.1,315.8,393.4,315.8,379.8 M359.3,399.3h6.4v-54.7h-6.4V399.3z M377.7,399.3h6.4v-54.7h-6.4
	V399.3z M396.2,360.3h6.4v39h-6.4V360.3z M396.1,345.7h6.7v6.2h-6.7V345.7z M438.3,373.6c0-5.7-3.6-9.2-9.8-9.2
	c-6.1,0-9.8,3.6-9.8,9.2c0,5.6,3.9,9.1,9.9,9.1C434.5,382.7,438.3,379.3,438.3,373.6 M442,403.6c0-3.5-2.6-5-10.8-5.6l-7.4-0.5
	c-0.7-0.1-1.5-0.2-2.2-0.2c-3.8,1.3-5.8,3.8-5.8,6.4c0,3.9,4.1,5.8,13.7,5.8C437.3,409.5,442,407.1,442,403.6 M409.9,404.6
	c0-4,2.7-6.9,7.1-8.6c-2.2-1-3.3-2.7-3.3-5c0-2.5,2.1-4.6,4.9-6.3c-3.8-2.4-6-6.4-6-11.2c0-8.2,6.6-14,15.9-14
	c4.8,0,8.8,1.6,11.5,4.1c2.4-1.8,6.1-3.3,9.2-3.6v5.6c-2.1,0-4.7,0.4-7,1.3c1.3,1.8,2,4.1,2,6.7c0,8.4-6.6,13.9-15.7,13.9
	c-2.3,0-4.2-0.4-6.2-1c-1.6,0.7-2.7,1.7-2.7,3c0,1.6,1.3,2.4,5.4,2.7l8,0.7c9.9,0.7,14.9,3.8,14.9,10.1c0,7.4-7.8,11.3-19.1,11.3
	C415.6,414.3,409.9,410.5,409.9,404.6 M480.9,376.4c-0.5-6.9-3.8-11.7-10.3-11.7c-5.2,0-10.2,3.6-11.1,11.7H480.9z M453,379.8
	c0-14.2,9.5-20.3,17.7-20.3c9.2,0,16.3,6.5,16.3,20.6v1.3h-27.6c0.2,8.8,5.3,13.5,11.8,13.5c5.6,0,8.8-2.3,11.7-6.4l3.7,3.2
	c-3.6,5.2-8.6,8.3-15.9,8.3C461.5,400.1,453,393.4,453,379.8 M502.5,399.3v-28.1c4.1-3.8,8-6.3,12.6-6.3c5,0,7.2,2.4,7.2,7.6v26.7
	h6.4v-28.1c0-7.4-4.1-11.7-11.5-11.7c-6.4,0-11.2,3.3-14.6,6.6v-5.8H496v39H502.5z M537.3,379.8c0,13.4,8.3,20.3,17.4,20.3
	c8.4,0,12.9-4.6,16-11.1l-5.3-2.1c-2.5,5.7-5.5,7.8-10.5,7.8c-6.6,0-11.2-5.4-11.2-15c0-11,5.7-14.9,11.3-14.9
	c5.1,0,8.1,2.7,10.1,7.8l5.4-2.2c-2.4-5.8-6.5-10.9-15.3-10.9C546.4,359.4,537.3,365.5,537.3,379.8 M604.1,376.4
	c-0.5-6.9-3.8-11.7-10.3-11.7c-5.2,0-10.2,3.6-11.1,11.7H604.1z M576.2,379.8c0-14.2,9.5-20.3,17.7-20.3c9.2,0,16.3,6.5,16.3,20.6
	v1.3h-27.6c0.2,8.8,5.3,13.5,11.7,13.5c5.6,0,8.8-2.3,11.7-6.4l3.7,3.2c-3.6,5.2-8.6,8.3-15.9,8.3
	C584.6,400.1,576.2,393.4,576.2,379.8"/>
<path class="st1" d="M229,238.6h15.4v90.3H229V238.6z M321.8,238.6v64.4h-0.2l-42.7-64.4h-15.5v90.3h14.2v-65.8h0.2l44.3,65.8H336
	v-90.3H321.8z M367.8,328.9v-68h0.2c1.9,8.7,3.3,12.6,5.5,19l17.4,48.9h13.5l17.6-48.9c2.1-6.3,4-12.2,5.4-18.4h0.2v67.3h14.8v-90.3
	H422l-23.4,71.6h-0.2l-24.2-71.6H354v90.3H367.8z M479.7,294h25.1l-12.3-36.6h-0.3L479.7,294z M500.3,238.3l32,90.6h-15.6l-7.3-21.5
	h-34.3l-7.4,21.5h-14.3l32-90.6H500.3z M558.1,252.6h16.6c12.9,0,19.6,3.2,19.6,13.5c0,10.7-6.8,13.9-19.5,13.9h-16.7V252.6z
	 M558.1,328.9v-35.6H574l20.2,35.6h16.3l-21.2-37.6c12.6-3.1,20-11.2,20-25.6c0-18.4-12.4-27.1-33.9-27.1h-32.3v90.3H558.1z
	 M620.5,322.9v-1.6h0.8c0.7,0,1,0.3,1,0.8c0,0.6-0.4,0.8-1,0.8H620.5z M619,326.2h1.5V324h0.7l1.1,2.2h1.6l-1.2-2.4
	c0.7-0.3,1.1-0.8,1.1-1.8c0-1.4-0.9-2-2.4-2H619V326.2z M625.8,323.3c0,2.6-1.9,4.6-4.5,4.6c-2.6,0-4.5-2-4.5-4.6
	c0-2.6,1.9-4.6,4.5-4.6C623.9,318.6,625.8,320.6,625.8,323.3 M615.6,323.3c0,3.2,2.4,5.7,5.6,5.7c3.2,0,5.7-2.5,5.7-5.7
	c0-3.2-2.5-5.7-5.6-5.7C618.1,317.6,615.6,320,615.6,323.3"/>
<path class="st0" d="M27.9,331.2h26.8c5.7,0,8.8-2.1,13.2-5.7l4-3.2c1.3-1.1,2.9-2.2,4.7-3.3c-1.8-1.1-3.3-2.3-4.7-3.3l-4-3.2
	c-4.4-3.5-7.5-5.7-13.2-5.7H27.9c-0.6,4-0.9,8.1-0.9,12.2C27,323.1,27.3,327.2,27.9,331.2"/>
<path class="st1" d="M98,248.1c-2-2.5-4.2-5.3-6.7-7.8c5.2-1,10.5-1.6,16-1.6c25.5,0,48.3,11.9,63,30.5h-46.5
	c-6.2,0-12.5-4.3-19.9-13.6L98,248.1z M103.8,382.4l-5.9,7.4c-2,2.5-4.2,5.3-6.7,7.8c5.2,1,10.5,1.6,16,1.6
	c25.5,0,48.3-11.9,63-30.5h-46.5C117.5,368.8,111.2,373.1,103.8,382.4"/>
<path class="st2" d="M92.3,356.3c8.9-7.1,16.4-10.3,24.4-10.3h66.1c-1.8,5-4.1,9.8-6.8,14.3h-52.4c-5.7,0-14.6,1.7-26.5,16.9
	l-5.9,7.4c-3.5,4.4-6.5,8-9.9,10.4c-12.6-4.3-23.7-11.6-32.6-21h7c13.5,0,21.1-5.3,29.7-12.2L92.3,356.3 M85.5,276.2l6.9,5.5
	c8.9,7.1,16.4,10.3,24.4,10.3h66.1c-1.8-5-4.1-9.8-6.8-14.3h-52.4c-11.9,0-20.8-9.6-26.5-16.9l-5.9-7.4c-3.5-4.4-6.5-8-9.9-10.4
	c-12.6,4.3-23.7,11.6-32.6,21h7C69.2,264,76.9,269.3,85.5,276.2"/>
<path class="st3" d="M80.2,355.2c-7.8,6.2-13.7,10.3-24.4,10.3H41.8c-5.5-7.7-9.7-16.5-12.2-25.8h25c8.4,0,13.4-3.4,18.5-7.5l4-3.2
	c4.9-3.9,8.9-5.7,13.2-5.7c0.1,0,0.3,0,0.4,0h96.6c-0.3,4.9-1,9.7-2.1,14.3h-68.6c-13,0-23.2,6.9-29.7,12.2L80.2,355.2 M73.2,305.8
	l4,3.2c4.9,3.9,8.9,5.7,13.2,5.7c0.1,0,0.3,0,0.4,0h96.6c-0.3-4.9-0.9-9.7-2-14.3h-68.6c-13,0-23.2-6.9-29.7-12.2l-6.9-5.5
	c-7.8-6.2-13.7-10.3-24.4-10.3H41.8c-5.5,7.7-9.7,16.4-12.2,25.8h25.1C63.1,298.3,68.1,301.7,73.2,305.8"/>
</svg>
